# xmcd
#
# Track frame offsets: 
#        150
#        16282
#        44422
#        60681
#        84167
#        113269
#        135034
#        156284
#        180211
#        201975
#        223561
#        244949
#        269337
#        292738
#        315072
#        332293
#
# Disc length: 4698 seconds
#
# Revision: 0
# Processed by: cddbd v1.5.2PL0 Copyright (c) Steve Scherf et al.
# Submitted via: ExactAudioCopy v1.3
#
DISCID=c1125810
DTITLE=五木ひろし - 70years 70songs Disc 5 1995-2018 FKCX-5090-4
DYEAR=1900
DGENRE=JPop
TTITLE0=Love Love Love
TTITLE1=CanYou Celebrate
TTITLE2=糸
TTITLE3=TSUNAMI
TTITLE4=山河(アルバムバージョン)
TTITLE5=箱根八里の半次郎
TTITLE6=世界に一つだけの花
TTITLE7=栄光の架橋
TTITLE8=千の風になって
TTITLE9=ふりむけば日本海
TTITLE10=また君に恋してる
TTITLE11=吾亦紅
TTITLE12=愛のままで
TTITLE13=南部蝉しぐれ
TTITLE14=夜明けのブルース
TTITLE15=ラストダンス
EXTD=
EXTT0=
EXTT1=
EXTT2=
EXTT3=
EXTT4=
EXTT5=
EXTT6=
EXTT7=
EXTT8=
EXTT9=
EXTT10=
EXTT11=
EXTT12=
EXTT13=
EXTT14=
EXTT15=
PLAYORDER=
